<?xml version="1.0" encoding="UTF-8" standalone="no"?>
<svg
   xmlns:dc="http://purl.org/dc/elements/1.1/"
   xmlns:cc="http://creativecommons.org/ns#"
   xmlns:rdf="http://www.w3.org/1999/02/22-rdf-syntax-ns#"
   xmlns:svg="http://www.w3.org/2000/svg"
   xmlns="http://www.w3.org/2000/svg"
   xmlns:sodipodi="http://sodipodi.sourceforge.net/DTD/sodipodi-0.dtd"
   xmlns:inkscape="http://www.inkscape.org/namespaces/inkscape"
   width="11in"
   height="8.5in"
   viewBox="0 0 279.4 215.9"
   version="1.1"
   id="svg8"
   inkscape:version="1.0.2 (e86c870879, 2021-01-15)"
   sodipodi:docname="phasePortrait3.svg">
  <defs
     id="defs2">
    <marker
       style="overflow:visible"
       id="Arrow1Mstart"
       refX="0.0"
       refY="0.0"
       orient="auto"
       inkscape:stockid="Arrow1Mstart"
       inkscape:isstock="true">
      <path
         transform="scale(0.4) translate(10,0)"
         style="fill-rule:evenodd;stroke:#000000;stroke-width:1pt;stroke-opacity:1;fill:#000000;fill-opacity:1"
         d="M 0.0,0.0 L 5.0,-5.0 L -12.5,0.0 L 5.0,5.0 L 0.0,0.0 z "
         id="path1365" />
    </marker>
    <marker
       style="overflow:visible"
       id="marker1165"
       refX="0.0"
       refY="0.0"
       orient="auto"
       inkscape:stockid="Arrow1Mstart"
       inkscape:isstock="true">
      <path
         transform="scale(0.4) translate(10,0)"
         style="fill-rule:evenodd;stroke:#000000;stroke-width:1pt;stroke-opacity:1;fill:#000000;fill-opacity:1"
         d="M 0.0,0.0 L 5.0,-5.0 L -12.5,0.0 L 5.0,5.0 L 0.0,0.0 z "
         id="path1163" />
    </marker>
    <marker
       style="overflow:visible"
       id="marker5336"
       refX="0"
       refY="0"
       orient="auto"
       inkscape:stockid="Arrow1Mend"
       inkscape:isstock="true">
      <path
         transform="matrix(-0.4,0,0,-0.4,-4,0)"
         style="fill:#ff0000;fill-opacity:1;fill-rule:evenodd;stroke:#ff0000;stroke-width:1pt;stroke-opacity:1"
         d="M 0,0 5,-5 -12.5,0 5,5 Z"
         id="path5334" />
    </marker>
    <marker
       style="overflow:visible;"
       id="marker2411"
       refX="0.0"
       refY="0.0"
       orient="auto"
       inkscape:stockid="Arrow1Mend"
       inkscape:isstock="true">
      <path
         transform="scale(0.4) rotate(180) translate(10,0)"
         style="fill-rule:evenodd;stroke:#000000;stroke-width:1pt;stroke-opacity:1;fill:#000000;fill-opacity:1"
         d="M 0.0,0.0 L 5.0,-5.0 L -12.5,0.0 L 5.0,5.0 L 0.0,0.0 z "
         id="path2409" />
    </marker>
    <marker
       style="overflow:visible;"
       id="marker1767"
       refX="0.0"
       refY="0.0"
       orient="auto"
       inkscape:stockid="Arrow1Mend"
       inkscape:isstock="true"
       inkscape:collect="always">
      <path
         transform="scale(0.4) rotate(180) translate(10,0)"
         style="fill-rule:evenodd;stroke:#000000;stroke-width:1pt;stroke-opacity:1;fill:#000000;fill-opacity:1"
         d="M 0.0,0.0 L 5.0,-5.0 L -12.5,0.0 L 5.0,5.0 L 0.0,0.0 z "
         id="path1765" />
    </marker>
    <marker
       style="overflow:visible;"
       id="marker1757"
       refX="0.0"
       refY="0.0"
       orient="auto"
       inkscape:stockid="Arrow1Mend"
       inkscape:isstock="true">
      <path
         transform="scale(0.4) rotate(180) translate(10,0)"
         style="fill-rule:evenodd;stroke:#000000;stroke-width:1pt;stroke-opacity:1;fill:#000000;fill-opacity:1"
         d="M 0.0,0.0 L 5.0,-5.0 L -12.5,0.0 L 5.0,5.0 L 0.0,0.0 z "
         id="path1755" />
    </marker>
    <marker
       style="overflow:visible"
       id="marker1631"
       refX="0.0"
       refY="0.0"
       orient="auto"
       inkscape:stockid="Arrow1Mstart"
       inkscape:isstock="true"
       inkscape:collect="always">
      <path
         transform="scale(0.4) translate(10,0)"
         style="fill-rule:evenodd;stroke:#000000;stroke-width:1pt;stroke-opacity:1;fill:#000000;fill-opacity:1"
         d="M 0.0,0.0 L 5.0,-5.0 L -12.5,0.0 L 5.0,5.0 L 0.0,0.0 z "
         id="path1629" />
    </marker>
    <marker
       style="overflow:visible"
       id="marker1621"
       refX="0.0"
       refY="0.0"
       orient="auto"
       inkscape:stockid="Arrow1Mstart"
       inkscape:isstock="true">
      <path
         transform="scale(0.4) translate(10,0)"
         style="fill-rule:evenodd;stroke:#000000;stroke-width:1pt;stroke-opacity:1;fill:#000000;fill-opacity:1"
         d="M 0.0,0.0 L 5.0,-5.0 L -12.5,0.0 L 5.0,5.0 L 0.0,0.0 z "
         id="path1619" />
    </marker>
    <marker
       style="overflow:visible;"
       id="marker1357"
       refX="0.0"
       refY="0.0"
       orient="auto"
       inkscape:stockid="Arrow1Lend"
       inkscape:isstock="true">
      <path
         transform="scale(0.8) rotate(180) translate(12.5,0)"
         style="fill-rule:evenodd;stroke:#000000;stroke-width:1pt;stroke-opacity:1;fill:#000000;fill-opacity:1"
         d="M 0.0,0.0 L 5.0,-5.0 L -12.5,0.0 L 5.0,5.0 L 0.0,0.0 z "
         id="path1355" />
    </marker>
    <marker
       style="overflow:visible;"
       id="marker1347"
       refX="0.0"
       refY="0.0"
       orient="auto"
       inkscape:stockid="Arrow1Lend"
       inkscape:isstock="true">
      <path
         transform="scale(0.8) rotate(180) translate(12.5,0)"
         style="fill-rule:evenodd;stroke:#000000;stroke-width:1pt;stroke-opacity:1;fill:#000000;fill-opacity:1"
         d="M 0.0,0.0 L 5.0,-5.0 L -12.5,0.0 L 5.0,5.0 L 0.0,0.0 z "
         id="path1345" />
    </marker>
    <marker
       style="overflow:visible"
       id="marker1257"
       refX="0.0"
       refY="0.0"
       orient="auto"
       inkscape:stockid="Arrow1Lstart"
       inkscape:isstock="true">
      <path
         transform="scale(0.8) translate(12.5,0)"
         style="fill-rule:evenodd;stroke:#000000;stroke-width:1pt;stroke-opacity:1;fill:#000000;fill-opacity:1"
         d="M 0.0,0.0 L 5.0,-5.0 L -12.5,0.0 L 5.0,5.0 L 0.0,0.0 z "
         id="path1255" />
    </marker>
    <marker
       style="overflow:visible"
       id="marker1247"
       refX="0.0"
       refY="0.0"
       orient="auto"
       inkscape:stockid="Arrow1Lstart"
       inkscape:isstock="true">
      <path
         transform="scale(0.8) translate(12.5,0)"
         style="fill-rule:evenodd;stroke:#000000;stroke-width:1pt;stroke-opacity:1;fill:#000000;fill-opacity:1"
         d="M 0.0,0.0 L 5.0,-5.0 L -12.5,0.0 L 5.0,5.0 L 0.0,0.0 z "
         id="path1245" />
    </marker>
    <marker
       style="overflow:visible"
       id="marker1237"
       refX="0.0"
       refY="0.0"
       orient="auto"
       inkscape:stockid="Arrow1Lstart"
       inkscape:isstock="true">
      <path
         transform="scale(0.8) translate(12.5,0)"
         style="fill-rule:evenodd;stroke:#000000;stroke-width:1pt;stroke-opacity:1;fill:#000000;fill-opacity:1"
         d="M 0.0,0.0 L 5.0,-5.0 L -12.5,0.0 L 5.0,5.0 L 0.0,0.0 z "
         id="path1235" />
    </marker>
    <marker
       style="overflow:visible"
       id="marker1157"
       refX="0.0"
       refY="0.0"
       orient="auto"
       inkscape:stockid="Arrow1Lstart"
       inkscape:isstock="true">
      <path
         transform="scale(0.8) translate(12.5,0)"
         style="fill-rule:evenodd;stroke:#000000;stroke-width:1pt;stroke-opacity:1;fill:#000000;fill-opacity:1"
         d="M 0.0,0.0 L 5.0,-5.0 L -12.5,0.0 L 5.0,5.0 L 0.0,0.0 z "
         id="path1155" />
    </marker>
    <marker
       style="overflow:visible"
       id="marker2411-7"
       refX="0"
       refY="0"
       orient="auto"
       inkscape:stockid="Arrow1Mend"
       inkscape:isstock="true">
      <path
         transform="matrix(-0.4,0,0,-0.4,-4,0)"
         style="fill:#000000;fill-opacity:1;fill-rule:evenodd;stroke:#000000;stroke-width:1pt;stroke-opacity:1"
         d="M 0,0 5,-5 -12.5,0 5,5 Z"
         id="path2409-4" />
    </marker>
    <marker
       style="overflow:visible"
       id="marker2411-62"
       refX="0"
       refY="0"
       orient="auto"
       inkscape:stockid="Arrow1Mend"
       inkscape:isstock="true">
      <path
         transform="matrix(-0.4,0,0,-0.4,-4,0)"
         style="fill:#000000;fill-opacity:1;fill-rule:evenodd;stroke:#000000;stroke-width:1pt;stroke-opacity:1"
         d="M 0,0 5,-5 -12.5,0 5,5 Z"
         id="path2409-3" />
    </marker>
    <marker
       style="overflow:visible"
       id="marker2411-3"
       refX="0"
       refY="0"
       orient="auto"
       inkscape:stockid="Arrow1Mend"
       inkscape:isstock="true">
      <path
         transform="matrix(-0.4,0,0,-0.4,-4,0)"
         style="fill:#000000;fill-opacity:1;fill-rule:evenodd;stroke:#000000;stroke-width:1pt;stroke-opacity:1"
         d="M 0,0 5,-5 -12.5,0 5,5 Z"
         id="path2409-6" />
    </marker>
    <marker
       style="overflow:visible"
       id="marker2411-4"
       refX="0"
       refY="0"
       orient="auto"
       inkscape:stockid="Arrow1Mend"
       inkscape:isstock="true">
      <path
         transform="matrix(-0.4,0,0,-0.4,-4,0)"
         style="fill:#000000;fill-opacity:1;fill-rule:evenodd;stroke:#000000;stroke-width:1pt;stroke-opacity:1"
         d="M 0,0 5,-5 -12.5,0 5,5 Z"
         id="path2409-5" />
    </marker>
    <marker
       style="overflow:visible"
       id="marker2411-1"
       refX="0"
       refY="0"
       orient="auto"
       inkscape:stockid="Arrow1Mend"
       inkscape:isstock="true">
      <path
         transform="matrix(-0.4,0,0,-0.4,-4,0)"
         style="fill:#000000;fill-opacity:1;fill-rule:evenodd;stroke:#000000;stroke-width:1pt;stroke-opacity:1"
         d="M 0,0 5,-5 -12.5,0 5,5 Z"
         id="path2409-8" />
    </marker>
    <marker
       style="overflow:visible"
       id="marker2411-60"
       refX="0"
       refY="0"
       orient="auto"
       inkscape:stockid="Arrow1Mend"
       inkscape:isstock="true">
      <path
         transform="matrix(-0.4,0,0,-0.4,-4,0)"
         style="fill:#000000;fill-opacity:1;fill-rule:evenodd;stroke:#000000;stroke-width:1pt;stroke-opacity:1"
         d="M 0,0 5,-5 -12.5,0 5,5 Z"
         id="path2409-48" />
    </marker>
    <marker
       style="overflow:visible"
       id="marker2411-11"
       refX="0"
       refY="0"
       orient="auto"
       inkscape:stockid="Arrow1Mend"
       inkscape:isstock="true">
      <path
         transform="matrix(-0.4,0,0,-0.4,-4,0)"
         style="fill:#000000;fill-opacity:1;fill-rule:evenodd;stroke:#000000;stroke-width:1pt;stroke-opacity:1"
         d="M 0,0 5,-5 -12.5,0 5,5 Z"
         id="path2409-55" />
    </marker>
    <marker
       style="overflow:visible"
       id="marker2411-8"
       refX="0"
       refY="0"
       orient="auto"
       inkscape:stockid="Arrow1Mend"
       inkscape:isstock="true">
      <path
         transform="matrix(-0.4,0,0,-0.4,-4,0)"
         style="fill:#000000;fill-opacity:1;fill-rule:evenodd;stroke:#000000;stroke-width:1pt;stroke-opacity:1"
         d="M 0,0 5,-5 -12.5,0 5,5 Z"
         id="path2409-0" />
    </marker>
    <marker
       style="overflow:visible"
       id="marker2411-49"
       refX="0"
       refY="0"
       orient="auto"
       inkscape:stockid="Arrow1Mend"
       inkscape:isstock="true">
      <path
         transform="matrix(-0.4,0,0,-0.4,-4,0)"
         style="fill:#000000;fill-opacity:1;fill-rule:evenodd;stroke:#000000;stroke-width:1pt;stroke-opacity:1"
         d="M 0,0 5,-5 -12.5,0 5,5 Z"
         id="path2409-01" />
    </marker>
    <marker
       style="overflow:visible"
       id="marker2411-81"
       refX="0"
       refY="0"
       orient="auto"
       inkscape:stockid="Arrow1Mend"
       inkscape:isstock="true">
      <path
         transform="matrix(-0.4,0,0,-0.4,-4,0)"
         style="fill:#000000;fill-opacity:1;fill-rule:evenodd;stroke:#000000;stroke-width:1pt;stroke-opacity:1"
         d="M 0,0 5,-5 -12.5,0 5,5 Z"
         id="path2409-41" />
    </marker>
    <marker
       style="overflow:visible"
       id="marker2411-0"
       refX="0"
       refY="0"
       orient="auto"
       inkscape:stockid="Arrow1Mend"
       inkscape:isstock="true">
      <path
         transform="matrix(-0.4,0,0,-0.4,-4,0)"
         style="fill:#000000;fill-opacity:1;fill-rule:evenodd;stroke:#000000;stroke-width:1pt;stroke-opacity:1"
         d="M 0,0 5,-5 -12.5,0 5,5 Z"
         id="path2409-9" />
    </marker>
    <marker
       style="overflow:visible"
       id="marker2411-17"
       refX="0"
       refY="0"
       orient="auto"
       inkscape:stockid="Arrow1Mend"
       inkscape:isstock="true">
      <path
         transform="matrix(-0.4,0,0,-0.4,-4,0)"
         style="fill:#000000;fill-opacity:1;fill-rule:evenodd;stroke:#000000;stroke-width:1pt;stroke-opacity:1"
         d="M 0,0 5,-5 -12.5,0 5,5 Z"
         id="path2409-62" />
    </marker>
    <marker
       style="overflow:visible"
       id="marker2411-31"
       refX="0"
       refY="0"
       orient="auto"
       inkscape:stockid="Arrow1Mend"
       inkscape:isstock="true">
      <path
         transform="matrix(-0.4,0,0,-0.4,-4,0)"
         style="fill:#000000;fill-opacity:1;fill-rule:evenodd;stroke:#000000;stroke-width:1pt;stroke-opacity:1"
         d="M 0,0 5,-5 -12.5,0 5,5 Z"
         id="path2409-65" />
    </marker>
    <marker
       style="overflow:visible"
       id="marker2411-13"
       refX="0"
       refY="0"
       orient="auto"
       inkscape:stockid="Arrow1Mend"
       inkscape:isstock="true">
      <path
         transform="matrix(-0.4,0,0,-0.4,-4,0)"
         style="fill:#000000;fill-opacity:1;fill-rule:evenodd;stroke:#ff0000;stroke-width:1pt;stroke-opacity:1"
         d="M 0,0 5,-5 -12.5,0 5,5 Z"
         id="path2409-43" />
    </marker>
    <marker
       style="overflow:visible"
       id="marker5336-9"
       refX="0"
       refY="0"
       orient="auto"
       inkscape:stockid="Arrow1Mend"
       inkscape:isstock="true">
      <path
         transform="matrix(-0.4,0,0,-0.4,-4,0)"
         style="fill:#ff0000;fill-opacity:1;fill-rule:evenodd;stroke:#ff0000;stroke-width:1pt;stroke-opacity:1"
         d="M 0,0 5,-5 -12.5,0 5,5 Z"
         id="path5334-1" />
    </marker>
    <marker
       style="overflow:visible"
       id="marker5336-9-3"
       refX="0"
       refY="0"
       orient="auto"
       inkscape:stockid="Arrow1Mend"
       inkscape:isstock="true">
      <path
         transform="matrix(-0.4,0,0,-0.4,-4,0)"
         style="fill:#ff0000;fill-opacity:1;fill-rule:evenodd;stroke:#ff0000;stroke-width:1pt;stroke-opacity:1"
         d="M 0,0 5,-5 -12.5,0 5,5 Z"
         id="path5334-1-7" />
    </marker>
    <marker
       style="overflow:visible"
       id="marker5336-9-3-2"
       refX="0"
       refY="0"
       orient="auto"
       inkscape:stockid="Arrow1Mend"
       inkscape:isstock="true">
      <path
         transform="matrix(-0.4,0,0,-0.4,-4,0)"
         style="fill:#ff0000;fill-opacity:1;fill-rule:evenodd;stroke:#ff0000;stroke-width:1pt;stroke-opacity:1"
         d="M 0,0 5,-5 -12.5,0 5,5 Z"
         id="path5334-1-7-7" />
    </marker>
    <marker
       style="overflow:visible"
       id="marker1165-9"
       refX="0"
       refY="0"
       orient="auto"
       inkscape:stockid="Arrow1Mstart"
       inkscape:isstock="true">
      <path
         transform="matrix(0.4,0,0,0.4,4,0)"
         style="fill:#000000;fill-opacity:1;fill-rule:evenodd;stroke:#000000;stroke-width:1pt;stroke-opacity:1"
         d="M 0,0 5,-5 -12.5,0 5,5 Z"
         id="path1163-1" />
    </marker>
  </defs>
  <sodipodi:namedview
     id="base"
     pagecolor="#ffffff"
     bordercolor="#666666"
     borderopacity="1.0"
     inkscape:pageopacity="0.0"
     inkscape:pageshadow="2"
     inkscape:zoom="0.98994949"
     inkscape:cx="360.03098"
     inkscape:cy="299.39747"
     inkscape:document-units="mm"
     inkscape:current-layer="layer1"
     inkscape:document-rotation="0"
     showgrid="false"
     inkscape:snap-global="true"
     units="in"
     inkscape:window-width="2560"
     inkscape:window-height="1378"
     inkscape:window-x="-4"
     inkscape:window-y="-1446"
     inkscape:window-maximized="1"
     inkscape:snap-bbox="true"
     inkscape:bbox-nodes="false"
     inkscape:snap-page="true" />
  <metadata
     id="metadata5">
    <rdf:RDF>
      <cc:Work
         rdf:about="">
        <dc:format>image/svg+xml</dc:format>
        <dc:type
           rdf:resource="http://purl.org/dc/dcmitype/StillImage" />
        <dc:title></dc:title>
      </cc:Work>
    </rdf:RDF>
  </metadata>
  <g
     inkscape:label="Layer 1"
     inkscape:groupmode="layer"
     id="layer1">
    <text
       xml:space="preserve"
       style="font-style:normal;font-weight:normal;font-size:10.5833px;line-height:1.25;font-family:sans-serif;letter-spacing:0px;word-spacing:0px;fill:#000000;fill-opacity:1;stroke:none;stroke-width:0.264583"
       x="138.98015"
       y="42.763123"
       id="text34"><tspan
         sodipodi:role="line"
         id="tspan32"
         x="138.98015"
         y="42.763123"
         style="stroke-width:0.264583" /></text>
    <path
       style="fill:none;stroke:#000000;stroke-width:0.59724;stroke-linecap:butt;stroke-linejoin:miter;stroke-miterlimit:4;stroke-dasharray:none;stroke-opacity:1;marker-start:url(#marker1621);marker-end:url(#marker1757)"
       d="M 139.24741,38.67559 V 184.76173"
       id="path46" />
    <path
       style="fill:none;stroke:#000000;stroke-width:0.59724;stroke-linecap:butt;stroke-linejoin:miter;stroke-miterlimit:4;stroke-dasharray:none;stroke-opacity:1;marker-start:url(#marker1631);marker-end:url(#marker1767)"
       d="M 226.45577,111.71866 H 52.039064"
       id="path48" />
    <text
       xml:space="preserve"
       style="font-style:normal;font-weight:normal;font-size:4.52591px;line-height:1.25;font-family:sans-serif;letter-spacing:0px;word-spacing:0px;fill:#000000;fill-opacity:1;stroke:none;stroke-width:0.113148"
       x="119.681"
       y="39.294991"
       id="text1867"><tspan
         sodipodi:role="line"
         id="tspan1865"
         x="119.681"
         y="39.294991"
         style="stroke-width:0.113148">\(y(t)\)</tspan></text>
    <text
       xml:space="preserve"
       style="font-style:normal;font-weight:normal;font-size:5.00875px;line-height:1.25;font-family:sans-serif;letter-spacing:0px;word-spacing:0px;fill:#000000;fill-opacity:1;stroke:none;stroke-width:0.125219"
       x="218.51384"
       y="128.20065"
       id="text1931"><tspan
         sodipodi:role="line"
         id="tspan1929"
         x="218.51384"
         y="128.20065"
         style="stroke-width:0.125219">\(x(t)\)</tspan></text>
    <path
       sodipodi:type="spiral"
       style="fill:none;fill-rule:evenodd;stroke:#000000;stroke-width:0.264583;marker-mid:url(#Arrow1Mstart)"
       id="path138"
       sodipodi:cx="139.78195"
       sodipodi:cy="112.2532"
       sodipodi:expansion="1"
       sodipodi:revolution="3"
       sodipodi:radius="60.648987"
       sodipodi:argument="-19.058187"
       sodipodi:t0="0"
       d="m 139.78195,112.2532 c 2.97491,-0.62983 2.3167,3.69937 1.04681,4.94448 -3.44133,3.37417 -8.90533,0.72184 -10.93578,-2.85087 -3.63199,-6.39073 0.50794,-14.15711 6.74855,-16.927071 9.15835,-4.065024 19.49621,1.729697 22.91837,10.646221 4.56119,11.88433 -2.94538,24.86841 -14.54391,28.90967 -14.59556,5.0855 -30.25689,-4.15737 -34.90095,-18.44158 -5.62459,-17.3001 5.36712,-35.654656 22.33925,-40.892254 20.00108,-6.172328 41.05822,6.575456 46.88355,26.236934 6.72557,22.69996 -7.78285,46.46565 -30.13461,52.87484 -25.3975,7.28253 -51.875802,-8.98958 -58.866136,-34.03229 -7.842098,-28.094141 10.195836,-57.287924 37.929966,-64.857427 30.79015,-8.403583 62.70153,11.40174 70.84872,41.827645"
       transform="matrix(1.4547722,-0.52949376,0.34182662,0.93916093,-102.33114,80.53259)" />
    <path
       sodipodi:type="spiral"
       style="fill:none;fill-rule:evenodd;stroke:#000000;stroke-width:0.26449302;stroke-miterlimit:4;stroke-dasharray:none;marker-mid:url(#marker1165)"
       id="path138-7"
       sodipodi:cx="139.78195"
       sodipodi:cy="112.2532"
       sodipodi:expansion="1"
       sodipodi:revolution="3"
       sodipodi:radius="60.648987"
       sodipodi:argument="-19.058187"
       sodipodi:t0="0"
       transform="matrix(1.2681589,-0.88797445,0.57325189,0.81868857,-102.2242,144.16513)"
       d="m 139.78195,112.2532 c 2.97491,-0.62983 2.3167,3.69937 1.04681,4.94448 -3.44133,3.37417 -8.90533,0.72184 -10.93578,-2.85087 -3.63199,-6.39073 0.50794,-14.15711 6.74855,-16.927071 9.15835,-4.065024 19.49621,1.729697 22.91837,10.646221 4.56119,11.88433 -2.94538,24.86841 -14.54391,28.90967 -14.59556,5.0855 -30.25689,-4.15737 -34.90095,-18.44158 -5.62459,-17.3001 5.36712,-35.654656 22.33925,-40.892254 20.00108,-6.172328 41.05822,6.575456 46.88355,26.236934 6.72557,22.69996 -7.78285,46.46565 -30.13461,52.87484 -25.3975,7.28253 -51.875802,-8.98958 -58.866136,-34.03229 -7.842098,-28.094141 10.195836,-57.287924 37.929966,-64.857427 30.79015,-8.403583 62.70153,11.40174 70.84872,41.827645" />
    <path
       sodipodi:type="spiral"
       style="fill:none;fill-rule:evenodd;stroke:#000000;stroke-width:0.264493;stroke-miterlimit:4;stroke-dasharray:none;marker-mid:url(#marker1165-9)"
       id="path138-7-3"
       sodipodi:cx="139.78195"
       sodipodi:cy="112.2532"
       sodipodi:expansion="1"
       sodipodi:revolution="3"
       sodipodi:radius="60.648987"
       sodipodi:argument="-19.058187"
       sodipodi:t0="0"
       transform="matrix(1.5084576,-0.34825485,0.22482377,0.97381876,-96.701446,51.308209)"
       d="m 139.78195,112.2532 c 2.97491,-0.62983 2.3167,3.69937 1.04681,4.94448 -3.44133,3.37417 -8.90533,0.72184 -10.93578,-2.85087 -3.63199,-6.39073 0.50794,-14.15711 6.74855,-16.927071 9.15835,-4.065024 19.49621,1.729697 22.91837,10.646221 4.56119,11.88433 -2.94538,24.86841 -14.54391,28.90967 -14.59556,5.0855 -30.25689,-4.15737 -34.90095,-18.44158 -5.62459,-17.3001 5.36712,-35.654656 22.33925,-40.892254 20.00108,-6.172328 41.05822,6.575456 46.88355,26.236934 6.72557,22.69996 -7.78285,46.46565 -30.13461,52.87484 -25.3975,7.28253 -51.875802,-8.98958 -58.866136,-34.03229 -7.842098,-28.094141 10.195836,-57.287924 37.929966,-64.857427 30.79015,-8.403583 62.70153,11.40174 70.84872,41.827645" />
  </g>
</svg>
